<svg id="Capa_1" enable-background="new 0 0 512.005 512.005" height="512" viewBox="0 0 512.005 512.005" width="512" xmlns="http://www.w3.org/2000/svg"><g><path d="m63.49 259.216h385.041v58.923h-385.041z" fill="#f69583"/><g fill="#ffcec0"><path d="m106.423 337.189h122.637v134.755h-122.637z"/><path d="m282.961 337.189h122.637v134.755h-122.637z"/></g><g><g><g><path d="m83.255 272.518-28.462-78.2c-4.604-12.649-18.59-19.171-31.239-14.567-12.649 4.604-19.171 18.59-14.567 31.239l28.462 78.2z" fill="#fdb0a0"/><path d="m54.793 194.322 28.461 78.197-30.435 11.078-28.461-78.197c-2.477-6.806-7.673-11.842-13.909-14.317 2.729-5.074 7.268-9.203 13.105-11.328 12.652-4.605 26.634 1.914 31.239 14.567z" fill="#f69583"/></g><g><path d="m474.571 289.19 28.462-78.2c4.604-12.649-1.918-26.635-14.567-31.239s-26.635 1.918-31.239 14.567l-28.462 78.2z" fill="#fdb0a0"/><path d="m503.034 210.994-28.461 78.197-22.903-8.336 28.461-78.197c3.087-8.482 1.172-17.561-4.234-23.999 4.082-.728 8.399-.422 12.57 1.096 12.643 4.601 19.172 18.586 14.567 31.239z" fill="#f69583"/></g></g><g><g><g><path d="m441.259 263.555c51.037-51.165 51.001-134.015-.115-185.131-51.117-51.118-133.969-51.153-185.134-.113-51.165-51.04-134.017-51.005-185.134.113-51.117 51.116-51.153 133.966-.115 185.131l178.889 178.895c3.512 3.512 9.207 3.512 12.72 0z" fill="#fb4a59"/></g></g><g><g><path d="m441.262 263.552-178.889 178.899c-3.512 3.512-9.215 3.512-12.726 0l-22.361-22.371 170.875-170.875c51.035-51.166 50.995-134.017-.12-185.132-9.174-9.175-19.38-16.708-30.235-22.591 26.843 3.972 52.686 16.288 73.337 36.938 51.115 51.125 51.155 133.967.119 185.132z" fill="#f82f40"/></g></g></g><g><g><g><path d="m83.414 305.874-13.571-69.946c-2.929-15.145-18.659-24.16-33.236-18.968-11.849 4.22-18.587 16.759-16.184 29.105l13.883 71.322 6.37 32.726c9.509 48.85 56.819 80.743 105.669 71.234l27.527-5.358-6.777-34.817c-7.579-38.932-38.945-68.816-78.198-74.503z" fill="#ffdfd0"/></g><g><path d="m173.875 415.985-24.69 4.807-5.624-28.917c-7.581-38.93-38.949-68.817-78.202-74.498-3.283-.478-5.905-2.979-6.537-6.236l-12.52-64.509c-2.156-11.191-11.324-19.038-21.84-20.273 2.888-4.218 7.039-7.581 12.141-9.395 14.582-5.196 30.314 3.819 33.24 18.962l13.575 69.947 5.481.798c39.253 5.681 70.622 35.567 78.193 74.498z" fill="#ffcec0"/></g></g></g><g><g><g><path d="m428.606 305.874 13.571-69.946c2.929-15.145 18.659-24.16 33.236-18.968 11.849 4.22 18.587 16.759 16.184 29.105l-13.883 71.322-6.37 32.726c-9.509 48.85-56.819 80.743-105.669 71.234l-27.527-5.358 6.777-34.817c7.579-38.932 38.945-68.816 78.198-74.503z" fill="#ffdfd0"/></g><g><path d="m491.596 246.062-13.879 71.325-6.374 32.727c-9.509 48.848-56.818 80.739-105.666 71.23l-9.424-1.833c43.12 1.016 81.964-29.126 90.486-72.892l6.365-32.727 13.889-71.315c1.89-9.699-1.871-19.522-9.31-25.317 5.443-2.156 11.694-2.451 17.736-.294 11.845 4.216 18.58 16.756 16.177 29.096z" fill="#ffcec0"/></g></g></g><g><path d="m428.805 265.472-171.74 171.676c-.361.361-.773.438-1.056.438s-.695-.076-1.057-.438l-171.737-171.675-6.008-30.968c-1.813-9.375-7.61-17.469-15.904-22.204-4.829-2.758-10.211-4.196-15.642-4.292-13.829-44.106-2.279-91.484 30.518-124.281 18.171-18.171 41.116-30.061 66.354-34.384 4.083-.7 6.826-4.576 6.126-8.659-.699-4.083-4.574-6.826-8.658-6.126-28.314 4.85-54.052 18.185-74.429 38.562-18.617 18.617-31.484 41.979-37.208 67.557-2.278 10.179-3.375 20.528-3.34 30.855-1.366.303-2.715.69-4.036 1.171-8 2.912-14.388 8.765-17.986 16.48-3.598 7.716-3.976 16.371-1.064 24.372l10.319 28.352c.061.169.148.32.22.482.065 1.696.251 3.403.583 5.11l20.253 104.047c4.982 25.593 19.632 47.713 41.251 62.288 7.641 5.151 15.833 9.125 24.356 11.912v46.198c0 4.142 3.358 7.5 7.5 7.5s7.5-3.358 7.5-7.5v-42.586c4.946.776 9.958 1.179 15.002 1.178 6.261 0 12.572-.604 18.854-1.828l27.527-5.358c4.065-.792 6.72-4.729 5.929-8.795s-4.728-6.721-8.795-5.929l-27.527 5.358c-21.659 4.218-43.665-.254-61.962-12.589-18.297-12.334-30.696-31.056-34.912-52.716l-20.251-104.047c-1.719-8.833 3.155-17.692 11.338-20.607 4.879-1.738 10.252-1.263 14.742 1.301 4.493 2.565 7.632 6.948 8.615 12.031l13.571 69.946c.608 3.132 3.13 5.537 6.288 5.994l5.483.794c36.052 5.223 64.951 32.756 71.912 68.514.792 4.066 4.731 6.721 8.795 5.929 4.066-.792 6.72-4.729 5.929-8.795-.156-.803-.34-1.596-.515-2.392l47.617 47.618v46.979c0 4.142 3.358 7.5 7.5 7.5s7.5-3.358 7.5-7.5v-31.978l7.787 7.787c3.115 3.116 7.257 4.832 11.664 4.832s8.549-1.716 11.663-4.832l7.787-7.787v31.978c0 4.142 3.357 7.5 7.5 7.5s7.5-3.358 7.5-7.5v-46.978l47.617-47.619c-.175.796-.359 1.589-.515 2.392-.792 4.066 1.862 8.003 5.928 8.795.484.094.967.14 1.441.14 3.518 0 6.656-2.487 7.354-6.068 6.962-35.757 35.86-63.291 71.912-68.514l5.483-.794c3.157-.457 5.68-2.862 6.287-5.994l13.572-69.951c.982-5.078 4.122-9.461 8.614-12.026 4.49-2.564 9.866-3.038 14.742-1.301 8.184 2.915 13.058 11.773 11.339 20.607l-8.476 43.538c-.792 4.066 1.862 8.003 5.928 8.795 4.078.794 8.005-1.864 8.796-5.929l8.476-43.538c.339-1.742.527-3.485.587-5.216.141-.276.28-.554.389-.852l10.146-27.876c6.011-16.515-2.535-34.84-19.05-40.851-1.336-.487-2.7-.882-4.082-1.186.056-28.079-8.337-55.963-24.568-79.34-2.361-3.402-7.036-4.245-10.438-1.883s-4.246 7.036-1.884 10.438c21.57 31.068 27.618 71.068 16.302 107.276-5.431.095-10.814 1.534-15.645 4.292-8.294 4.736-14.091 12.829-15.902 22.2zm-408.659-45.752-4.111-11.295c-1.542-4.235-1.342-8.817.563-12.901 1.874-4.019 5.183-7.076 9.323-8.641.943 8.221 2.612 16.366 5.022 24.337-4.229 2.045-7.882 4.972-10.797 8.5zm69.616 79.495-1.457-7.509 8.86 8.86c-2.369-.521-4.765-.969-7.193-1.32zm332.285.031c-2.427.352-4.823.8-7.192 1.32l8.859-8.86-1.457 7.509zm59.021-88.031c2.413-7.992 4.082-16.141 5.008-24.342 8.625 3.249 13.069 12.87 9.909 21.551l-4.111 11.295c-2.917-3.53-6.573-6.459-10.806-8.504z"/><path d="m176.431 48.242c27.965 2.927 54.346 15.492 74.282 35.379 1.464 1.46 3.38 2.19 5.297 2.19s3.833-.73 5.297-2.19c45.276-45.167 116.541-48.546 165.77-7.857 3.191 2.638 7.92 2.19 10.56-1.002 2.639-3.193 2.189-7.92-1.003-10.559-26.411-21.831-59.885-33.018-94.248-31.506-32.153 1.416-62.554 13.887-86.378 35.292-21.633-19.399-49.067-31.635-78.015-34.666-4.118-.423-7.809 2.559-8.24 6.679-.432 4.12 2.558 7.809 6.678 8.24z"/><path d="m477.733 317.294c-4.071-.793-8.004 1.864-8.795 5.929l-4.957 25.458c-4.216 21.66-16.614 40.381-34.912 52.716-18.295 12.334-40.296 16.807-61.962 12.589l-27.527-5.358c-4.063-.79-8.004 1.864-8.795 5.929-.791 4.066 1.863 8.003 5.93 8.795l27.527 5.358c6.283 1.223 12.592 1.828 18.854 1.828 5.044 0 10.056-.402 15.003-1.179v42.587c0 4.142 3.357 7.5 7.5 7.5s7.5-3.358 7.5-7.5v-46.199c8.523-2.787 16.715-6.761 24.355-11.911 21.62-14.574 36.27-36.695 41.251-62.288l4.956-25.458c.792-4.067-1.863-8.004-5.928-8.796z"/></g></g></g></svg>