<svg id="Capa_1" enable-background="new 0 0 512.118 512.118" height="512" viewBox="0 0 512.118 512.118" width="512" xmlns="http://www.w3.org/2000/svg"><g><g><g fill="#fef056"><path d="m383.073 108.444 24.27-13.37c2.48-1.36 3.15-4.65 1.35-6.83-6.91-8.35-15.29-13.65-25.12-15.91-2.77-.64-5.45 1.32-5.62 4.15l-1.61 27.72c-.21 3.56 3.6 5.96 6.73 4.24z"/><path d="m413.363 147.744 26.75 7.23c2.72.73 5.49-1.17 5.71-3.99.82-10.8-1.53-20.43-7.04-28.89-1.55-2.37-4.84-2.83-6.93-.9l-20.39 18.83c-2.63 2.42-1.55 6.79 1.9 7.72z"/><path d="m170.663 108.444-24.27-13.37c-2.48-1.36-3.15-4.65-1.35-6.83 6.91-8.35 15.28-13.65 25.12-15.91 2.77-.64 5.45 1.32 5.61 4.15l1.62 27.72c.2 3.56-3.6 5.96-6.73 4.24z"/><path d="m140.373 147.744-26.75 7.23c-2.73.73-5.5-1.17-5.71-3.99-.82-10.8 1.53-20.43 7.04-28.89 1.55-2.37 4.84-2.83 6.92-.9l20.4 18.83c2.63 2.42 1.55 6.79-1.9 7.72z"/></g><g id="XMLID_125_"><g><path d="m376.363 165.264c24.42 24.42 25.08 63.8 1.48 89.02l-59.54 63.64v46.99h-88.21l1.9-51.4-55.42-59.23c-11.53-12.33-17.27-28.05-17.27-43.74 0-16.41 6.27-32.8 18.75-45.28 22.57-22.57 58.31-25.07 83.81-5.87l10.61 8c2.81 2.11 6.67 2.11 9.47 0l10.62-8c11.47-8.64 25.02-12.89 38.51-12.89 16.48 0 32.88 6.35 45.29 18.76z" fill="#fd8087"/></g></g><g><path d="m218.773 254.284c-11.53-12.33-17.27-28.05-17.27-43.74 0-16.41 6.27-32.8 18.75-45.28 7.019-7.019 15.312-12.094 24.174-15.182-22.672-7.907-48.603-2.588-66.373 15.182-12.48 12.48-18.75 28.87-18.75 45.28 0 15.69 5.74 31.41 17.27 43.74l55.42 59.23-1.9 51.4h42.2l1.9-51.4z" fill="#fe646f"/></g><g><g id="XMLID_8_"><path d="m502.513 317.864c-4.88-10.56-16.99-15.68-27.97-11.82l-145.959 51.33c-1.866-2.37-.324-.412-2.19-2.782 2.561-4.117 4.04-8.981 4.04-14.188 0-9.4-4.82-17.67-12.13-22.48-4.23-2.79-9.31-4.41-14.76-4.41h-71.55-21.03c-9.14-9.14-21.54-14.28-34.47-14.28h-130.938v117.838l56.887.932 4.41 3.8c13.56 11.68 30.87 18.1 48.77 18.1h139.89c11.96 0 23.75-2.87 34.37-8.37l162.53-84.17c7.72-4 12.19-11.87 12.19-20.05 0-3.17-.67-6.39-2.09-9.45z" fill="#ffcebf"/><path d="m210.963 313.514h92.58c14.853 0 26.893 12.041 26.893 26.893 0 14.853-12.041 26.893-26.893 26.893h-92.58z" fill="#ffcebf"/><path d="m303.543 345.838h-71.117c-11.854 0-21.463 9.609-21.463 21.463h92.58c14.853 0 26.893-12.041 26.893-26.893 0-3.816-.8-7.443-2.232-10.731-4.145 9.509-13.624 16.161-24.661 16.161z" fill="#ffb09e"/><g><path d="m500.814 314.83c-2.05 3.072-4.902 5.676-8.401 7.489l-162.53 84.17c-10.62 5.5-22.41 8.37-34.37 8.37h-139.89c-17.9 0-35.21-6.42-48.77-18.1-2.849-2.455-6.47-3.834-10.23-3.895l-51.067-.837v25.045l56.887.932 4.41 3.8c13.56 11.68 30.87 18.1 48.77 18.1h139.89c11.96 0 23.75-2.87 34.37-8.37l162.53-84.17c7.72-4 12.19-11.87 12.19-20.05 0-3.17-.67-6.39-2.09-9.45-.498-1.077-1.06-2.073-1.699-3.034z" fill="#ffb09e"/></g><g><g id="XMLID_110_"><g><path d="m78.023 302.104v114c0 .65-.05 1.28-.14 1.9-.92 6.53-6.53 11.56-13.32 11.56h-52.14c-2.717 0-4.92-2.203-4.92-4.92v-131.08c0-2.717 2.203-4.92 4.92-4.92h52.14c6.45 0 11.84 4.53 13.15 10.59.2.92.31 1.88.31 2.87z" fill="#99e6fc"/></g></g></g></g></g></g><g><path d="m509.323 314.713c-6.54-14.148-22.561-20.917-37.266-15.747l-134.64 47.353c.334-1.922.519-3.896.519-5.913 0-8.844-3.358-16.918-8.863-23.018l54.25-57.98c12.748-13.625 19.599-31.403 19.289-50.059s-7.747-36.197-20.94-49.391c-12.194-12.194-28.384-19.573-45.587-20.776-17.197-1.202-34.263 3.849-48.035 14.226l-10.62 8c-.129.097-.31.098-.438-.001l-10.618-8c-13.772-10.377-30.837-15.429-48.035-14.226-17.203 1.204-33.393 8.582-45.588 20.776-13.193 13.194-20.63 30.735-20.939 49.391-.311 18.656 6.54 36.434 19.288 50.059l5.598 5.983c2.83 3.024 7.576 3.183 10.601.352 3.024-2.83 3.183-7.576.353-10.601l-5.598-5.982c-20.949-22.39-20.376-56.913 1.305-78.595 19.81-19.807 51.62-22.033 73.99-5.177l10.617 7.999c5.443 4.103 13.05 4.104 18.493 0l10.618-8c22.374-16.857 54.181-14.631 73.989 5.177 21.683 21.682 22.256 56.205 1.306 78.595l-55.653 59.481c-4.06-1.69-8.509-2.628-13.174-2.628h-68.296l-25.748-27.519c-2.829-3.023-7.575-3.183-10.601-.353-3.024 2.83-3.183 7.576-.353 10.601l16.159 17.271h-.761c-10.319-9.231-23.499-14.28-37.455-14.28h-93.73c-3.614-6.317-10.406-10.592-18.191-10.592h-57.069c-4.143 0-7.5 3.358-7.5 7.5s3.357 7.5 7.5 7.5h57.068c3.285 0 5.958 2.673 5.958 5.958v56.473c0 4.142 3.357 7.5 7.5 7.5s7.5-3.358 7.5-7.5v-51.839h90.963c11.02 0 21.379 4.291 29.17 12.083 1.407 1.407 3.314 2.197 5.304 2.197h92.58c10.693 0 19.394 8.7 19.394 19.394 0 10.693-8.7 19.393-19.394 19.393h-75.074c-3.471 0-6.733 1.352-9.185 3.805l-12.91 12.909c-2.93 2.929-2.93 7.678-.001 10.607 1.465 1.464 3.384 2.197 5.304 2.197 1.919 0 3.839-.732 5.303-2.196l12.322-12.321h74.241c8.752 0 16.746-3.291 22.823-8.693l150.669-52.99c7.369-2.59 15.397.801 18.674 7.891 3.39 7.332.427 15.985-6.747 19.7l-110.818 57.388c-3.678 1.905-5.115 6.431-3.211 10.109 1.334 2.576 3.953 4.053 6.666 4.053 1.162 0 2.341-.271 3.443-.841l110.818-57.388c14.315-7.414 20.229-24.683 13.463-39.315z"/><path d="m349.622 412.865-23.188 12.008c-9.515 4.927-20.207 7.532-30.922 7.532h-139.89c-16.097 0-31.679-5.785-43.878-16.289l-4.414-3.8c-1.36-1.171-3.097-1.816-4.893-1.816h-16.911v-19.965c0-4.142-3.357-7.5-7.5-7.5s-7.5 3.358-7.5 7.5v25.571c0 3.285-2.673 5.958-5.958 5.958h-57.068c-4.143 0-7.5 3.358-7.5 7.5s3.357 7.5 7.5 7.5h57.068c8.177 0 15.256-4.718 18.708-11.564h16.378l2.304 1.983c14.918 12.847 33.977 19.922 53.664 19.922h139.89c13.104 0 26.183-3.186 37.82-9.212l23.188-12.008c3.678-1.905 5.115-6.431 3.211-10.109-1.905-3.68-6.431-5.115-10.109-3.211z"/><path d="m374.456 114.65c1.958 1.235 4.189 1.856 6.426 1.856 1.996 0 3.997-.496 5.809-1.493l24.271-13.366c3.16-1.74 5.359-4.771 6.035-8.317.671-3.519-.25-7.115-2.526-9.868-7.945-9.601-17.776-15.804-29.22-18.437-3.496-.804-7.135-.035-9.993 2.109-2.837 2.128-4.582 5.379-4.787 8.919l-1.612 27.712c-.255 4.376 1.89 8.547 5.597 10.885zm10.776-34.078c5.739 1.883 10.771 5.093 15.244 9.724l-16.334 8.995z"/><path d="m402.849 146.231c1.045 4.257 4.323 7.612 8.555 8.755l26.751 7.227c1.042.281 2.103.42 3.157.42 2.466 0 4.896-.759 6.96-2.219 2.925-2.068 4.758-5.295 5.029-8.856.945-12.427-1.825-23.716-8.235-33.554-1.956-3.002-5.11-4.977-8.654-5.418-3.519-.441-7.033.69-9.641 3.096l-20.395 18.829c-3.221 2.972-4.572 7.464-3.527 11.72zm31.411-17.048c2.825 5.34 4.219 11.143 4.225 17.582l-18.001-4.863z"/><path d="m142.772 101.646 24.271 13.367h.001c1.812.997 3.812 1.493 5.809 1.493 2.236 0 4.47-.622 6.428-1.857 3.707-2.339 5.851-6.51 5.596-10.885l-1.612-27.709c-.205-3.542-1.95-6.793-4.788-8.921-2.857-2.143-6.5-2.91-9.992-2.108-11.443 2.633-21.274 8.836-29.219 18.437-2.276 2.75-3.197 6.347-2.527 9.866.674 3.545 2.873 6.577 6.033 8.317zm25.73-21.073 1.09 18.719-16.334-8.995c4.474-4.632 9.505-7.841 15.244-9.724z"/><path d="m105.464 160.414c2.064 1.46 4.493 2.219 6.96 2.219 1.054 0 2.114-.139 3.157-.42l26.75-7.226c4.231-1.143 7.51-4.497 8.555-8.753 1.046-4.257-.305-8.749-3.525-11.723l-20.396-18.829c-2.605-2.406-6.116-3.533-9.638-3.097-3.545.441-6.699 2.416-8.657 5.418-6.41 9.838-9.181 21.127-8.235 33.555.27 3.56 2.103 6.788 5.029 8.856zm14.011-31.232 13.777 12.719-18.002 4.863c.006-6.44 1.4-12.243 4.225-17.582z"/></g></g></svg>