<svg id="Capa_1" enable-background="new 0 0 513.414 513.414" height="512" viewBox="0 0 513.414 513.414" width="512" xmlns="http://www.w3.org/2000/svg"><g><g><g><path d="m284.765 465.446 188.342-206.65c47.638-52.269 45.774-132.753-4.233-182.76l-.442-.442c-51.692-51.692-135.502-51.692-187.194 0l-23.638 23.638-24.116-24.018c-51.724-51.513-135.387-51.428-187.005.19-50.262 50.262-51.853 131.249-3.604 183.446l191.136 206.774c13.702 14.824 37.156 14.742 50.754-.178z" fill="#fd8087"/></g><g><path d="m128.377 269.967c-48.25-52.197-46.659-133.184 3.604-183.447 19.048-19.048 42.471-31.071 67.032-36.08-49.531-24.626-111.274-16.296-152.534 24.964-50.262 50.262-51.853 131.249-3.604 183.446l191.136 206.774c13.702 14.823 37.156 14.741 50.753-.179l12.068-13.241z" fill="#fe646f"/></g><path d="m345.523 287.803c0 20.247-16.413 36.66-36.659 36.66h-102.795c-20.246 0-36.659-16.413-36.659-36.66v-96.783c0-20.247 16.413-36.659 36.659-36.659h102.794c20.246 0 36.659 16.413 36.659 36.659v96.783z" fill="#f3f0f3"/><path d="m286.983 234.612c-1.862 3.35-4.282 6.348-7.149 8.852-.709.62-1.058 1.554-.87 2.478l4.548 22.342c1.602 7.869-4.412 15.23-12.442 15.23h-24.621c-8.03 0-14.044-7.361-12.442-15.23l4.369-21.463c.191-.94-.131-1.926-.877-2.528-7.479-6.038-12.266-15.279-12.266-25.639 0-18.889 15.898-34.065 35.043-32.878 11.798.732 21.939 7.832 27.133 17.796z" fill="#d7d0d6"/><g id="XMLID_579_"><g><path d="m505.916 181.688v74.81c0 11.8-9.57 21.37-21.37 21.37h-54.1c-11.8 0-21.37-9.57-21.37-21.37v-21.89h-136.09c-4.29 0-8.17-1.74-10.97-4.55-2.81-2.81-4.55-6.69-4.55-10.97 0-8.57 6.95-15.52 15.52-15.52h136.09v-21.88c0-11.81 9.57-21.37 21.37-21.37h54.1c11.8 0 21.37 9.56 21.37 21.37zm-30 58.41v-42.01c0-4.29-3.48-7.77-7.78-7.77h-10.7c-4.29 0-7.77 3.48-7.77 7.77v42.01c0 4.29 3.48 7.77 7.77 7.77h10.7c4.3 0 7.78-3.48 7.78-7.77z" fill="#fef48b"/></g></g></g><g><path d="m48.174 253.76c-22.014-23.814-33.787-54.786-33.149-87.211.637-32.424 13.616-62.909 36.549-85.841 48.585-48.588 127.723-48.668 176.407-.18l24.116 24.019c2.931 2.916 7.67 2.913 10.597-.011l23.638-23.638c23.584-23.585 54.94-36.574 88.294-36.574 33.353 0 64.709 12.989 88.293 36.574l.441.441c15.071 15.07 26.085 33.823 31.851 54.231 1.127 3.986 5.271 6.305 9.257 5.179 3.986-1.127 6.305-5.271 5.179-9.257-6.462-22.87-18.8-43.881-35.679-60.761l-.441-.441c-26.418-26.417-61.541-40.967-98.9-40.967-37.36 0-72.483 14.55-98.901 40.967l-18.345 18.346-18.812-18.737c-54.537-54.31-143.178-54.221-197.603.202-25.687 25.687-40.226 59.835-40.938 96.154-.714 36.318 12.473 71.012 37.131 97.687l133.591 144.523c1.479 1.6 3.491 2.409 5.51 2.409 1.82 0 3.646-.659 5.089-1.992 3.042-2.812 3.229-7.557.417-10.599z"/><path d="m422.677 302.765-143.665 157.63c-5.145 5.645-12.184 8.768-19.82 8.795-.033 0-.065 0-.1 0-7.598 0-14.621-3.071-19.782-8.655l-35.796-38.724c-2.813-3.043-7.558-3.229-10.599-.417-3.042 2.813-3.229 7.558-.417 10.599l35.796 38.724c7.921 8.568 19.14 13.474 30.804 13.474h.146c11.716-.041 22.962-5.031 30.854-13.691l143.665-157.63c2.79-3.062 2.57-7.805-.491-10.595-3.061-2.792-7.805-2.573-10.595.49z"/><path d="m484.546 152.815h-54.099c-15.918 0-28.868 12.95-28.868 28.868v14.388h-48.556v-5.052c0-24.35-19.811-44.159-44.16-44.159h-102.793c-24.35 0-44.159 19.81-44.159 44.159v1.94c0 4.143 3.357 7.5 7.5 7.5s7.5-3.357 7.5-7.5v-1.94c0-16.078 13.081-29.159 29.159-29.159h102.794c16.079 0 29.16 13.081 29.16 29.159v5.052h-46.39c-7.004-10.314-18.46-17.011-30.894-17.781-11.29-.712-22.04 3.166-30.257 10.889-8.102 7.615-12.749 18.358-12.749 29.475 0 11.246 4.603 21.815 12.728 29.448l-3.804 18.685c-1.215 5.967.298 12.093 4.149 16.808 3.852 4.716 9.554 7.42 15.643 7.42h24.621c6.088 0 11.788-2.704 15.64-7.419 3.853-4.715 5.365-10.841 4.151-16.808l-3.997-19.641c1.545-1.556 2.941-3.246 4.214-5.034h46.945v45.691c0 16.078-13.081 29.159-29.16 29.159h-102.794c-16.078 0-29.159-13.081-29.159-29.159v-62.881c0-4.143-3.357-7.5-7.5-7.5s-7.5 3.357-7.5 7.5v62.881c0 24.35 19.81 44.159 44.159 44.159h102.794c24.35 0 44.16-19.81 44.16-44.159v-45.691h9.368c4.143 0 7.5-3.357 7.5-7.5s-3.357-7.5-7.5-7.5h-89.405c-4.422 0-8.02-3.599-8.02-8.021s3.598-8.02 8.02-8.02h136.093c4.143 0 7.5-3.357 7.5-7.5v-21.888c0-7.646 6.222-13.868 13.868-13.868h54.099c7.646 0 13.868 6.222 13.868 13.869v74.814c0 7.646-6.222 13.868-13.868 13.868h-54.099c-7.646 0-13.868-6.222-13.868-13.868v-21.887c0-4.143-3.357-7.5-7.5-7.5h-14.725c-4.143 0-7.5 3.357-7.5 7.5s3.357 7.5 7.5 7.5h7.225v14.387c0 15.918 12.95 28.868 28.868 28.868h54.099c15.918 0 28.868-12.95 28.868-28.868v-74.814c-.001-15.919-12.951-28.87-28.869-28.87zm-234.579 66.276c0 12.365 9.799 22.48 22.038 22.997-.602 1.696-.759 3.542-.39 5.35l4.547 22.342c.428 2.102-.485 3.612-1.068 4.325-.582.713-1.879 1.909-4.023 1.909h-24.621c-2.146 0-3.443-1.196-4.025-1.909-.583-.713-1.496-2.223-1.067-4.325l4.367-21.462c.758-3.72-.588-7.498-3.514-9.86-6.022-4.862-9.477-12.081-9.477-19.804 0-7.096 2.849-13.682 8.022-18.545 5.168-4.855 11.924-7.288 19.056-6.848 3.646.226 7.158 1.28 10.321 2.994-11.351 1.41-20.166 11.109-20.166 22.836z"/><path d="m468.141 255.367c8.422 0 15.273-6.852 15.273-15.273v-42.005c0-8.422-6.852-15.273-15.273-15.273h-10.703c-8.422 0-15.273 6.852-15.273 15.273v42.005c0 8.422 6.852 15.273 15.273 15.273zm-10.977-15.273v-42.005c0-.15.123-.273.273-.273h10.703c.15 0 .273.123.273.273v42.005c0 .15-.123.273-.273.273h-10.703c-.15 0-.273-.123-.273-.273z"/></g></g></svg>